<?xml version="1.0" encoding="iso-8859-1"?>
<!-- Generator: Adobe Illustrator 19.0.0, SVG Export Plug-In . SVG Version: 6.00 Build 0)  -->
<svg version="1.1" id="Capa_1" xmlns="http://www.w3.org/2000/svg" xmlns:xlink="http://www.w3.org/1999/xlink" x="0px" y="0px"
	 viewBox="0 0 512 512" style="enable-background:new 0 0 512 512;" xml:space="preserve">
<path style="fill:#88C9DB;" d="M512,209.89c0,39.27-14.209,75.643-38.381,105.388c-37.712,46.4-99.648,76.668-169.656,76.668
	c-57.451,0-109.466-20.377-147.115-53.321S95.916,260.158,95.916,209.89c17.753-5.28,35.652-9.87,53.666-13.759
	c33.206-7.183,66.777-12.013,100.495-14.512c-0.324-35.223-5.918-68.074-15.38-95.937c5.029-0.774,10.173-1.171,15.411-1.171
	c54.168,0,98.31,42.929,100.286,96.606C404.897,184.599,459.118,194.165,512,209.89z"/>
<path style="fill:#393B85;" d="M450.136,231.229c-3.135,0-6.033-1.947-7.235-4.841c-1.334-3.211-0.335-7.061,2.424-9.193
	c5.434-4.202,13.637,0.451,12.575,7.342C457.316,228.328,453.984,231.229,450.136,231.229z"/>
<g>
	<path style="fill:#F2FBFF;" d="M250.791,288.658l-3.063,21.694l-10.173,72.12c-30.738-9.054-58.267-24.225-80.693-43.849
		c-16.519-14.449-30.268-31.324-40.503-49.965H250.791z"/>
	<path style="fill:#F2FBFF;" d="M503.022,262.948c-6.576,18.934-16.592,36.562-29.4,52.328h-0.01
		c-37.691,46.4-99.627,76.668-169.646,76.668c-14.836,0-29.316-1.359-43.274-3.952l45.982-61.612l12.086-16.185
		c22.196-29.734,57.127-47.247,94.222-47.247L503.022,262.948L503.022,262.948z"/>
</g>
<path style="fill:#88C9DB;" d="M402.614,229.899L137.589,254.99l-21.241,33.665h134.433l-13.236,93.814l-6.346,45.02l29.484-39.5
	l58.076-77.8c22.194-29.732,57.121-47.244,94.223-47.244h90.041L402.614,229.899z"/>
<path style="fill:#56A0BF;" d="M211.198,290.075c-43.701-31.266-59.148-72.929-61.612-93.946
	c-18.014,3.889-35.914,8.479-53.666,13.759c0,50.268,23.284,95.79,60.933,128.734c15.802,13.827,34.142,25.43,54.346,34.252
	L211.198,290.075L211.198,290.075z"/>
<g>
	<path style="fill:#C9E4FF;" d="M209.253,288.658c10.926,8.051,23.66,15.442,38.475,21.694l-10.173,72.12
		c-30.738-9.054-58.267-24.225-80.693-43.849c-16.519-14.449-30.268-31.324-40.503-49.965H209.253z"/>
	<path style="fill:#C9E4FF;" d="M473.612,315.277c-37.691,46.4-99.627,76.668-169.646,76.668c-14.836,0-29.316-1.359-43.274-3.952
		l45.982-61.612C350.126,332.831,404.89,330.918,473.612,315.277z"/>
</g>
<polyline style="fill:#56A0BF;" points="95.922,209.883 0,99.738 40.361,228.33 23.111,300.467 111.383,228.92 "/>
<g>
	<path style="fill:#605D9C;" d="M396.342,248.194c-4.332,0-7.841-3.511-7.841-7.841v-30.841c0-4.331,3.51-7.841,7.841-7.841
		c4.332,0,7.841,3.511,7.841,7.841v30.841C404.183,244.683,400.673,248.194,396.342,248.194z"/>
	<path style="fill:#605D9C;" d="M370.202,248.194c-4.332,0-7.841-3.511-7.841-7.841v-30.841c0-4.331,3.51-7.841,7.841-7.841
		s7.841,3.511,7.841,7.841v30.841C378.043,244.683,374.533,248.194,370.202,248.194z"/>
	<path style="fill:#605D9C;" d="M344.062,248.194c-4.332,0-7.841-3.511-7.841-7.841v-30.841c0-4.331,3.51-7.841,7.841-7.841
		c4.332,0,7.841,3.511,7.841,7.841v30.841C351.903,244.683,348.393,248.194,344.062,248.194z"/>
</g>
<path style="fill:#56A0BF;" d="M272.733,181.002l-22.656,0.617c-0.324-35.223-5.918-68.074-15.38-95.937
	C275.086,116.87,272.733,181.002,272.733,181.002z"/>
<g>
</g>
<g>
</g>
<g>
</g>
<g>
</g>
<g>
</g>
<g>
</g>
<g>
</g>
<g>
</g>
<g>
</g>
<g>
</g>
<g>
</g>
<g>
</g>
<g>
</g>
<g>
</g>
<g>
</g>
</svg>
